<svg width="32" height="32" viewBox="0 0 32 32" fill="none" xmlns="http://www.w3.org/2000/svg">
<path d="M29.5 29.5H17.5M1.74997 30.25L10.0739 27.0485C10.6063 26.8438 10.8725 26.7414 11.1215 26.6077C11.3428 26.4889 11.5537 26.3519 11.752 26.1979C11.9754 26.0246 12.177 25.823 12.5804 25.4196L29.5 8.50003C31.1569 6.84317 31.1569 4.15688 29.5 2.50003C27.8432 0.843173 25.1569 0.843171 23.5 2.50002L6.58039 19.4196C6.17703 19.823 5.97535 20.0246 5.80206 20.248C5.64813 20.4463 5.51107 20.6572 5.39232 20.8785C5.25863 21.1275 5.15624 21.3937 4.95147 21.9261L1.74997 30.25ZM1.74997 30.25L4.83715 22.2235C5.05806 21.6491 5.16852 21.3619 5.35798 21.2304C5.52355 21.1154 5.72842 21.0719 5.92641 21.1097C6.15297 21.153 6.37054 21.3706 6.80569 21.8057L10.1943 25.1943C10.6295 25.6295 10.8471 25.8471 10.8903 26.0736C10.9281 26.2716 10.8846 26.4765 10.7697 26.6421C10.6381 26.8315 10.351 26.942 9.77658 27.1629L1.74997 30.25Z" stroke="#AB7F6A" stroke-width="2" stroke-linecap="round" stroke-linejoin="round"/>
</svg>
