<svg width="32" height="24" viewBox="0 0 32 24" fill="none" xmlns="http://www.w3.org/2000/svg">
<path d="M31 7.39706C31 6.48833 31 6.03397 30.8203 5.82357C30.6644 5.64102 30.4305 5.54414 30.1912 5.56297C29.9153 5.58468 29.594 5.90596 28.9515 6.54853L23.5 12L28.9515 17.4515C29.594 18.094 29.9153 18.4153 30.1912 18.437C30.4305 18.4559 30.6644 18.359 30.8203 18.1764C31 17.966 31 17.5117 31 16.6029V7.39706Z" stroke="#AB7F6A" stroke-width="2" stroke-linecap="round" stroke-linejoin="round"/>
<path d="M1 8.7C1 6.17976 1 4.91965 1.49047 3.95704C1.9219 3.11031 2.61031 2.4219 3.45704 1.99047C4.41965 1.5 5.67976 1.5 8.2 1.5H16.3C18.8202 1.5 20.0804 1.5 21.043 1.99047C21.8897 2.4219 22.5781 3.11031 23.0095 3.95704C23.5 4.91965 23.5 6.17976 23.5 8.7V15.3C23.5 17.8202 23.5 19.0804 23.0095 20.043C22.5781 20.8897 21.8897 21.5781 21.043 22.0095C20.0804 22.5 18.8202 22.5 16.3 22.5H8.2C5.67976 22.5 4.41965 22.5 3.45704 22.0095C2.61031 21.5781 1.9219 20.8897 1.49047 20.043C1 19.0804 1 17.8202 1 15.3V8.7Z" stroke="#AB7F6A" stroke-width="2" stroke-linecap="round" stroke-linejoin="round"/>
</svg>
