<svg width="32" height="32" viewBox="0 0 32 32" fill="none" xmlns="http://www.w3.org/2000/svg">
<path d="M16 1V2.5M2.5 16H1M6.25 6.25L5.34985 5.34985M25.75 6.25L26.6504 5.34985M31 16H29.5M13 18.25H19M16 18.25V25.75M21.25 23.3109C23.5211 21.6772 25 19.0113 25 16C25 11.0294 20.9706 7 16 7C11.0294 7 7 11.0294 7 16C7 19.0113 8.4789 21.6772 10.75 23.3109V26.2C10.75 27.8802 10.75 28.7202 11.077 29.362C11.3646 29.9265 11.8235 30.3854 12.388 30.673C13.0298 31 13.8698 31 15.55 31H16.45C18.1302 31 18.9702 31 19.612 30.673C20.1765 30.3854 20.6354 29.9265 20.923 29.362C21.25 28.7202 21.25 27.8802 21.25 26.2V23.3109Z" stroke="#AB7F6A" stroke-width="2" stroke-linecap="round" stroke-linejoin="round"/>
</svg>
