<svg width="32" height="30" viewBox="0 0 32 30" fill="none" xmlns="http://www.w3.org/2000/svg">
<path d="M25.75 21C28.6495 21 31 16.6348 31 11.25C31 5.86522 28.6495 1.5 25.75 1.5M25.75 21C22.8505 21 20.5 16.6348 20.5 11.25C20.5 5.86522 22.8505 1.5 25.75 1.5M25.75 21L6.16532 17.4391C4.77408 17.1862 4.07846 17.0597 3.51599 16.7834C2.3717 16.2213 1.51954 15.2003 1.17122 13.9739C1 13.3711 1 12.664 1 11.25C1 9.83595 1 9.12893 1.17122 8.52611C1.51954 7.29973 2.3717 6.27866 3.51599 5.71657C4.07846 5.44028 4.77408 5.3138 6.16532 5.06085L25.75 1.5M5.5 18L6.09079 26.271C6.14689 27.0565 6.17494 27.4492 6.34581 27.7468C6.49625 28.0089 6.72233 28.2194 6.99444 28.3508C7.30349 28.5 7.69722 28.5 8.48469 28.5H11.1583C12.0585 28.5 12.5086 28.5 12.8418 28.3205C13.1345 28.1627 13.3665 27.9122 13.5013 27.6082C13.6548 27.2623 13.6203 26.8135 13.5512 25.9159L13 18.75" stroke="#AB7F6A" stroke-width="2" stroke-linecap="round" stroke-linejoin="round"/>
</svg>
