<svg width="32" height="32" viewBox="0 0 32 32" fill="none" xmlns="http://www.w3.org/2000/svg">
<path d="M25 17.5L23.0505 7.75273C22.9416 7.20824 22.8872 6.93599 22.7548 6.71429C22.6377 6.51829 22.4775 6.35159 22.2863 6.2269C22.07 6.08585 21.8001 6.02071 21.2603 5.89041L1 1M1 1L5.89041 21.2603C6.02071 21.8001 6.08585 22.07 6.2269 22.2863C6.35159 22.4775 6.51829 22.6377 6.71429 22.7548C6.93599 22.8872 7.20824 22.9416 7.75273 23.0505L17.5 25M1 1L12.379 12.379M22.1971 29.3029L29.3029 22.1971C29.897 21.603 30.194 21.306 30.3053 20.9635C30.4032 20.6623 30.4032 20.3377 30.3053 20.0365C30.194 19.694 29.897 19.397 29.3029 18.8029L28.1971 17.6971C27.603 17.103 27.306 16.806 26.9635 16.6947C26.6623 16.5968 26.3377 16.5968 26.0365 16.6947C25.694 16.806 25.397 17.103 24.8029 17.6971L17.6971 24.8029C17.103 25.397 16.806 25.694 16.6947 26.0365C16.5968 26.3377 16.5968 26.6623 16.6947 26.9635C16.806 27.306 17.103 27.603 17.6971 28.1971L18.8029 29.3029C19.397 29.897 19.694 30.194 20.0365 30.3053C20.3377 30.4032 20.6623 30.4032 20.9635 30.3053C21.306 30.194 21.603 29.897 22.1971 29.3029ZM17.5 14.5C17.5 16.1569 16.1569 17.5 14.5 17.5C12.8431 17.5 11.5 16.1569 11.5 14.5C11.5 12.8431 12.8431 11.5 14.5 11.5C16.1569 11.5 17.5 12.8431 17.5 14.5Z" stroke="#AB7F6A" stroke-width="2" stroke-linecap="round" stroke-linejoin="round"/>
</svg>
